<?xml version="1.0" encoding="UTF-8" standalone="no"?>
<svg
   xmlns:dc="http://purl.org/dc/elements/1.1/"
   xmlns:cc="http://creativecommons.org/ns#"
   xmlns:rdf="http://www.w3.org/1999/02/22-rdf-syntax-ns#"
   xmlns:svg="http://www.w3.org/2000/svg"
   xmlns="http://www.w3.org/2000/svg"
   xmlns:sodipodi="http://sodipodi.sourceforge.net/DTD/sodipodi-0.dtd"
   xmlns:inkscape="http://www.inkscape.org/namespaces/inkscape"
   aria-hidden="true"
   focusable="false"
   data-prefix="fas"
   data-icon="check"
   class="svg-inline--fa fa-check fa-w-16"
   role="img"
   viewBox="0 0 512 512"
   version="1.1"
   id="svg22"
   sodipodi:docname="check-solid.svg"
   inkscape:version="1.0.1 (3bc2e813f5, 2020-09-07)">
  <metadata
     id="metadata28">
    <rdf:RDF>
      <cc:Work
         rdf:about="">
        <dc:format>image/svg+xml</dc:format>
        <dc:type
           rdf:resource="http://purl.org/dc/dcmitype/StillImage" />
        <dc:title></dc:title>
      </cc:Work>
    </rdf:RDF>
  </metadata>
  <defs
     id="defs26" />
  <sodipodi:namedview
     pagecolor="#ffffff"
     bordercolor="#666666"
     borderopacity="1"
     objecttolerance="10"
     gridtolerance="10"
     guidetolerance="10"
     inkscape:pageopacity="0"
     inkscape:pageshadow="2"
     inkscape:window-width="1920"
     inkscape:window-height="1017"
     id="namedview24"
     showgrid="false"
     inkscape:zoom="1.4199219"
     inkscape:cx="256"
     inkscape:cy="256"
     inkscape:window-x="-8"
     inkscape:window-y="-8"
     inkscape:window-maximized="1"
     inkscape:current-layer="svg22" />
  <path
     fill="currentColor"
     d="M173.898 439.404l-166.4-166.4c-9.997-9.997-9.997-26.206 0-36.204l36.203-36.204c9.997-9.998 26.207-9.998 36.204 0L192 312.69 432.095 72.596c9.997-9.997 26.207-9.997 36.204 0l36.203 36.204c9.997 9.997 9.997 26.206 0 36.204l-294.4 294.401c-9.998 9.997-26.207 9.997-36.204-.001z"
     id="path20" />
  <path
     style="fill:#ffffff;stroke-width:0.704264"
     d="m 187.84572,446.07236 c -8.40106,-1.39911 -5.37988,1.40273 -95.10397,-88.19935 C 46.526052,311.72016 7.3490593,272.16054 5.6817644,269.96275 c -5.73758296,-7.56316 -6.7711447,-17.18529 -2.7697901,-25.78586 1.5484432,-3.32824 5.2890114,-7.46358 21.6641297,-23.95053 10.885894,-10.96023 21.377128,-21.01363 23.313855,-22.3409 4.522125,-3.09907 11.343001,-4.87426 16.430863,-4.27629 8.947991,1.05167 6.057268,-1.51778 69.315848,61.61198 l 58.2804,58.16171 122.01121,-121.90354 C 414.86671,90.629955 436.53874,69.304017 439.4092,68.002254 c 7.16378,-3.248792 14.47819,-3.149039 22.10969,0.301529 3.41054,1.542069 7.04588,4.891772 24.68049,22.741327 24.28582,24.58182 25.0991,25.75103 25.09257,36.07456 -0.007,11.36841 14.37627,-3.99564 -153.77226,164.25599 C 196.74134,452.25259 204.92174,444.425 195.83214,446.09007 c -2.29837,0.42102 -4.19989,0.72845 -4.22558,0.68317 -0.0257,-0.0453 -1.71808,-0.36068 -3.76084,-0.70088 z"
     id="path30" />
</svg>
